<mxfile host="app.diagrams.net" modified="2021-12-31T06:50:31.997Z" agent="5.0 (Macintosh; Intel Mac OS X 10_15_7) AppleWebKit/537.36 (KHTML, like Gecko) Chrome/96.0.4664.110 Safari/537.36" etag="KRLKF56r9JJKtaBtg8Kb" version="16.1.2" type="github">
  <diagram id="8Z35-QLSnhJETDdAsFzb" name="Page-1">
    <mxGraphModel dx="946" dy="662" grid="1" gridSize="10" guides="1" tooltips="1" connect="1" arrows="1" fold="1" page="1" pageScale="1" pageWidth="827" pageHeight="1169" math="0" shadow="0">
      <root>
        <mxCell id="0" />
        <mxCell id="1" parent="0" />
        <mxCell id="gsRhqBQRFbRUbnUbL8ew-3" value="" style="rounded=0;whiteSpace=wrap;html=1;strokeWidth=0;movable=0;resizable=0;rotatable=0;deletable=0;editable=0;connectable=0;" parent="1" vertex="1">
          <mxGeometry x="39" y="30" width="750" height="500" as="geometry" />
        </mxCell>
        <mxCell id="Alo_LvCbX4HZsLYXvrnu-5" value="&lt;p style=&quot;margin: 0px ; margin-top: 4px ; text-align: center&quot;&gt;&lt;i&gt;&amp;lt;&amp;lt;Interface&amp;gt;&amp;gt;&lt;/i&gt;&lt;br&gt;&lt;span style=&quot;font-weight: 700&quot;&gt;Strategy&lt;/span&gt;&lt;br&gt;&lt;/p&gt;&lt;hr size=&quot;1&quot;&gt;&lt;p style=&quot;margin: 0px ; margin-left: 4px&quot;&gt;&lt;br&gt;&lt;/p&gt;&lt;hr size=&quot;1&quot;&gt;&lt;p style=&quot;margin: 0px ; margin-left: 4px&quot;&gt;+ operate(Type): Type&lt;br&gt;&lt;/p&gt;" style="verticalAlign=top;align=left;overflow=fill;fontSize=12;fontFamily=Helvetica;html=1;fillColor=#d5e8d4;strokeColor=#82b366;" parent="1" vertex="1">
          <mxGeometry x="443" y="200" width="190" height="100" as="geometry" />
        </mxCell>
        <mxCell id="Alo_LvCbX4HZsLYXvrnu-6" value="&lt;p style=&quot;margin: 0px ; margin-top: 4px ; text-align: center&quot;&gt;&lt;b&gt;FirstStrategy&lt;/b&gt;&lt;/p&gt;&lt;hr size=&quot;1&quot;&gt;&lt;p style=&quot;margin: 0px ; margin-left: 4px&quot;&gt;&lt;br&gt;&lt;/p&gt;&lt;hr size=&quot;1&quot;&gt;&lt;p style=&quot;margin: 0px ; margin-left: 4px&quot;&gt;+ operate(Type): Type&lt;br&gt;&lt;/p&gt;" style="verticalAlign=top;align=left;overflow=fill;fontSize=12;fontFamily=Helvetica;html=1;fillColor=#dae8fc;strokeColor=#6c8ebf;" parent="1" vertex="1">
          <mxGeometry x="299" y="400" width="146" height="90" as="geometry" />
        </mxCell>
        <mxCell id="Alo_LvCbX4HZsLYXvrnu-7" value="" style="endArrow=block;dashed=1;endFill=0;endSize=12;html=1;rounded=0;exitX=0.5;exitY=0;exitDx=0;exitDy=0;entryX=0.25;entryY=1;entryDx=0;entryDy=0;" parent="1" source="Alo_LvCbX4HZsLYXvrnu-6" target="Alo_LvCbX4HZsLYXvrnu-5" edge="1">
          <mxGeometry width="160" relative="1" as="geometry">
            <mxPoint x="393" y="320" as="sourcePoint" />
            <mxPoint x="553" y="320" as="targetPoint" />
          </mxGeometry>
        </mxCell>
        <mxCell id="Alo_LvCbX4HZsLYXvrnu-8" value="&lt;p style=&quot;margin: 0px ; margin-top: 4px ; text-align: center&quot;&gt;&lt;b&gt;SecondStrategy&lt;/b&gt;&lt;/p&gt;&lt;hr size=&quot;1&quot;&gt;&lt;p style=&quot;margin: 0px ; margin-left: 4px&quot;&gt;&lt;br&gt;&lt;/p&gt;&lt;hr size=&quot;1&quot;&gt;&lt;p style=&quot;margin: 0px ; margin-left: 4px&quot;&gt;+ operate(Type): Type&lt;br&gt;&lt;/p&gt;" style="verticalAlign=top;align=left;overflow=fill;fontSize=12;fontFamily=Helvetica;html=1;fillColor=#dae8fc;strokeColor=#6c8ebf;" parent="1" vertex="1">
          <mxGeometry x="458" y="410" width="141" height="90" as="geometry" />
        </mxCell>
        <mxCell id="Alo_LvCbX4HZsLYXvrnu-9" value="" style="endArrow=block;dashed=1;endFill=0;endSize=12;html=1;rounded=0;entryX=0.5;entryY=1;entryDx=0;entryDy=0;exitX=0.5;exitY=0;exitDx=0;exitDy=0;" parent="1" source="Alo_LvCbX4HZsLYXvrnu-8" target="Alo_LvCbX4HZsLYXvrnu-5" edge="1">
          <mxGeometry width="160" relative="1" as="geometry">
            <mxPoint x="163" y="200" as="sourcePoint" />
            <mxPoint x="323" y="200" as="targetPoint" />
          </mxGeometry>
        </mxCell>
        <mxCell id="Alo_LvCbX4HZsLYXvrnu-10" value="&lt;p style=&quot;margin: 0px ; margin-top: 4px ; text-align: center&quot;&gt;&lt;b&gt;ThirdStrategy&lt;/b&gt;&lt;/p&gt;&lt;hr size=&quot;1&quot;&gt;&lt;p style=&quot;margin: 0px ; margin-left: 4px&quot;&gt;&lt;br&gt;&lt;/p&gt;&lt;hr size=&quot;1&quot;&gt;&lt;p style=&quot;margin: 0px ; margin-left: 4px&quot;&gt;+ operate(Type): Type&lt;br&gt;&lt;/p&gt;" style="verticalAlign=top;align=left;overflow=fill;fontSize=12;fontFamily=Helvetica;html=1;fillColor=#dae8fc;strokeColor=#6c8ebf;" parent="1" vertex="1">
          <mxGeometry x="609" y="400" width="146" height="90" as="geometry" />
        </mxCell>
        <mxCell id="Alo_LvCbX4HZsLYXvrnu-11" value="" style="endArrow=block;dashed=1;endFill=0;endSize=12;html=1;rounded=0;entryX=0.75;entryY=1;entryDx=0;entryDy=0;exitX=0.5;exitY=0;exitDx=0;exitDy=0;" parent="1" source="Alo_LvCbX4HZsLYXvrnu-10" target="Alo_LvCbX4HZsLYXvrnu-5" edge="1">
          <mxGeometry width="160" relative="1" as="geometry">
            <mxPoint x="163" y="200" as="sourcePoint" />
            <mxPoint x="323" y="200" as="targetPoint" />
          </mxGeometry>
        </mxCell>
        <mxCell id="Alo_LvCbX4HZsLYXvrnu-14" value="Use" style="endArrow=open;endSize=12;dashed=1;html=1;rounded=0;entryX=0;entryY=0.5;entryDx=0;entryDy=0;exitX=1;exitY=0.5;exitDx=0;exitDy=0;" parent="1" source="Alo_LvCbX4HZsLYXvrnu-15" target="Alo_LvCbX4HZsLYXvrnu-5" edge="1">
          <mxGeometry width="160" relative="1" as="geometry">
            <mxPoint x="278.6199999999999" y="241.89200000000005" as="sourcePoint" />
            <mxPoint x="443" y="310" as="targetPoint" />
          </mxGeometry>
        </mxCell>
        <mxCell id="Alo_LvCbX4HZsLYXvrnu-15" value="Context" style="swimlane;fontStyle=1;align=center;verticalAlign=top;childLayout=stackLayout;horizontal=1;startSize=26;horizontalStack=0;resizeParent=1;resizeParentMax=0;resizeLast=0;collapsible=1;marginBottom=0;fillColor=#dae8fc;strokeColor=#6c8ebf;" parent="1" vertex="1">
          <mxGeometry x="89" y="200" width="190" height="100" as="geometry">
            <mxRectangle x="100" y="254" width="80" height="26" as="alternateBounds" />
          </mxGeometry>
        </mxCell>
        <mxCell id="Alo_LvCbX4HZsLYXvrnu-16" value="- Strategy strategy" style="text;strokeColor=#6c8ebf;fillColor=#dae8fc;align=left;verticalAlign=top;spacingLeft=4;spacingRight=4;overflow=hidden;rotatable=0;points=[[0,0.5],[1,0.5]];portConstraint=eastwest;" parent="Alo_LvCbX4HZsLYXvrnu-15" vertex="1">
          <mxGeometry y="26" width="190" height="26" as="geometry" />
        </mxCell>
        <mxCell id="Alo_LvCbX4HZsLYXvrnu-18" value="+ Context(Strategy strategy)&#xa;+ operate(Type): Type&#xa;" style="text;strokeColor=#6c8ebf;fillColor=#dae8fc;align=left;verticalAlign=top;spacingLeft=4;spacingRight=4;overflow=hidden;rotatable=0;points=[[0,0.5],[1,0.5]];portConstraint=eastwest;" parent="Alo_LvCbX4HZsLYXvrnu-15" vertex="1">
          <mxGeometry y="52" width="190" height="48" as="geometry" />
        </mxCell>
        <mxCell id="gsRhqBQRFbRUbnUbL8ew-4" value="&lt;b&gt;&lt;font style=&quot;font-size: 14px&quot;&gt;策略模式（Strategy Pattern）&lt;/font&gt;&lt;/b&gt;" style="text;html=1;strokeColor=none;fillColor=none;align=center;verticalAlign=middle;whiteSpace=wrap;rounded=0;" parent="1" vertex="1">
          <mxGeometry x="294" y="540" width="240" height="30" as="geometry" />
        </mxCell>
        <mxCell id="drL60Ca-g_DORDlMZNTe-1" value="Client" style="swimlane;fontStyle=1;align=center;verticalAlign=top;childLayout=stackLayout;horizontal=1;startSize=26;horizontalStack=0;resizeParent=1;resizeParentMax=0;resizeLast=0;collapsible=1;marginBottom=0;fillColor=#e1d5e7;strokeColor=#9673a6;" vertex="1" parent="1">
          <mxGeometry x="89" y="70" width="190" height="80" as="geometry">
            <mxRectangle x="100" y="254" width="80" height="26" as="alternateBounds" />
          </mxGeometry>
        </mxCell>
        <mxCell id="drL60Ca-g_DORDlMZNTe-2" value="" style="text;strokeColor=#9673a6;fillColor=#e1d5e7;align=left;verticalAlign=top;spacingLeft=4;spacingRight=4;overflow=hidden;rotatable=0;points=[[0,0.5],[1,0.5]];portConstraint=eastwest;" vertex="1" parent="drL60Ca-g_DORDlMZNTe-1">
          <mxGeometry y="26" width="190" height="26" as="geometry" />
        </mxCell>
        <mxCell id="drL60Ca-g_DORDlMZNTe-3" value="+ static void main (String[] args)&#xa;" style="text;strokeColor=#9673a6;fillColor=#e1d5e7;align=left;verticalAlign=top;spacingLeft=4;spacingRight=4;overflow=hidden;rotatable=0;points=[[0,0.5],[1,0.5]];portConstraint=eastwest;" vertex="1" parent="drL60Ca-g_DORDlMZNTe-1">
          <mxGeometry y="52" width="190" height="28" as="geometry" />
        </mxCell>
        <mxCell id="drL60Ca-g_DORDlMZNTe-5" value="Use" style="endArrow=open;endSize=12;dashed=1;html=1;rounded=0;exitX=0.5;exitY=1;exitDx=0;exitDy=0;entryX=0.5;entryY=0;entryDx=0;entryDy=0;" edge="1" parent="1" source="drL60Ca-g_DORDlMZNTe-1" target="Alo_LvCbX4HZsLYXvrnu-15">
          <mxGeometry width="160" relative="1" as="geometry">
            <mxPoint x="330" y="340" as="sourcePoint" />
            <mxPoint x="490" y="340" as="targetPoint" />
          </mxGeometry>
        </mxCell>
      </root>
    </mxGraphModel>
  </diagram>
</mxfile>
